<svg width="20" height="17" viewBox="0 0 20 17" fill="none" xmlns="http://www.w3.org/2000/svg">
<path d="M12.7083 10.6249C12.7083 11.5051 11.8689 12.2187 10.8333 12.2187L5.20834 12.2187C4.17281 12.2187 3.33334 11.5051 3.33334 10.6249L3.33335 3.71867C3.33335 2.83846 4.17281 2.12492 5.20835 2.12492L10.8333 2.12492C11.8689 2.12492 12.7083 2.83847 12.7083 3.71867L12.7083 10.6249Z" fill="#ECECEC"/>
<path d="M15.8333 7.70305L15.8333 11.875C15.8333 13.5318 14.4902 14.875 12.8333 14.875L7.39584 14.8749M10.8333 2.12492L5.20835 2.12492C4.17281 2.12492 3.33335 2.83846 3.33335 3.71867L3.33334 10.6249C3.33334 11.5051 4.17281 12.2187 5.20834 12.2187L10.8333 12.2187C11.8689 12.2187 12.7083 11.5051 12.7083 10.6249L12.7083 3.71867C12.7083 2.83847 11.8689 2.12492 10.8333 2.12492Z" stroke="#ECECEC" stroke-linecap="round"/>
</svg>
