<svg width="31" height="31" viewBox="0 0 31 31" fill="none" xmlns="http://www.w3.org/2000/svg">
<rect width="31" height="31" rx="15.5" fill="#F0F4F7"/>
<path fill-rule="evenodd" clip-rule="evenodd" d="M7.11117 6.28824C6.63715 5.94426 5.96468 6.03721 5.60917 6.49585C5.25365 6.9545 5.34972 7.60515 5.82374 7.94914L7.65592 9.2787L10.5945 21.5993C10.8191 22.5413 11.6861 23.2086 12.6852 23.2086H22.0239C22.6164 23.2086 23.0968 22.7439 23.0968 22.1706C23.0968 21.5973 22.6164 21.1325 22.0239 21.1325L12.6852 21.1325L12.4068 19.9651L20.2522 19.3325C22.7802 19.1287 24.815 17.2394 25.1296 14.8039L25.6198 11.0094C25.7799 9.77021 24.7813 8.67572 23.4907 8.67572H9.70915C9.577 8.25445 9.30936 7.88341 8.94335 7.6178L7.11117 6.28824ZM10.2094 10.7518L11.9193 17.9211L20.074 17.2636C21.5908 17.1413 22.8117 16.0077 23.0005 14.5464L23.4907 10.7518H10.2094Z" fill="#9542FF"/>
<path d="M13.9774 25.2847C13.9774 25.858 13.4971 26.3228 12.9045 26.3228C12.312 26.3228 11.8317 25.858 11.8317 25.2847C11.8317 24.7114 12.312 24.2466 12.9045 24.2466C13.4971 24.2466 13.9774 24.7114 13.9774 25.2847Z" fill="#9542FF"/>
<path d="M20.4146 26.3228C21.0071 26.3228 21.4874 25.858 21.4874 25.2847C21.4874 24.7114 21.0071 24.2466 20.4146 24.2466C19.822 24.2466 19.3417 24.7114 19.3417 25.2847C19.3417 25.858 19.822 26.3228 20.4146 26.3228Z" fill="#9542FF"/>
</svg>
