<svg width="86" height="55" viewBox="0 0 86 55" fill="none" xmlns="http://www.w3.org/2000/svg">
<path d="M55.5388 21.5548C55.5388 18.288 54.2411 15.1551 51.9311 12.8451C49.6212 10.5352 46.4882 9.23749 43.2215 9.23749C39.9547 9.23749 36.8217 10.5352 34.5118 12.8451C32.2019 15.1551 30.9041 18.288 30.9041 21.5548L43.2215 21.5548H55.5388Z" fill="white"/>
<rect x="41.7901" width="2.05264" height="6.15793" rx="1.02632" fill="white"/>
<rect x="27.4244" y="8.50626" width="2.05264" height="4.10529" rx="1.02632" transform="rotate(-40.098 27.4244 8.50626)" fill="white"/>
<rect x="60.9151" y="12.3937" width="2.05264" height="4.10529" rx="1.02632" transform="rotate(66.3429 60.9151 12.3937)" fill="white"/>
<rect x="55.7276" y="6.15781" width="2.05264" height="4.10529" rx="1.02632" transform="rotate(40.1 55.7276 6.15781)" fill="white"/>
<rect x="23.6275" y="14.5219" width="2.05264" height="4.10529" rx="1.02632" transform="rotate(-68.5696 23.6275 14.5219)" fill="white"/>
<rect x="33.5807" y="3.69061" width="2.05264" height="4.10529" rx="1.02632" transform="rotate(-17.3754 33.5807 3.69061)" fill="white"/>
<rect x="62.8072" y="19.3687" width="2.05264" height="4.10529" rx="1.02632" transform="rotate(89.0656 62.8072 19.3687)" fill="white"/>
<rect x="49.1744" y="3.07812" width="2.05264" height="4.10529" rx="1.02632" transform="rotate(17.38 49.1744 3.07812)" fill="white"/>
<rect x="22.8057" y="21.7109" width="2.05264" height="4.10529" rx="1.02632" transform="rotate(-91.2896 22.8057 21.7109)" fill="white"/>
<g clip-path="url(#clip0_7090_1045)">
<rect y="25.0721" width="85.6" height="29.6" rx="4" fill="#FF5F17"/>
<g clip-path="url(#clip1_7090_1045)">
<path d="M18.208 35.875C17.5849 36.1507 17.0524 36.5272 16.6077 37.0018C16.163 37.4763 15.8218 38.0331 15.5787 38.6746C15.3357 39.3136 15.2168 39.9949 15.2168 40.7213C15.2168 41.4477 15.3409 42.1291 15.5891 42.768C15.8373 43.4069 16.1837 43.9637 16.6309 44.4409C17.0782 44.9154 17.6159 45.2892 18.2442 45.5623C18.875 45.8354 19.5704 45.9706 20.3331 45.9706H25.4339C25.6226 45.9706 25.7751 45.8142 25.7751 45.6206V35.8088C25.7751 35.6152 25.6226 35.4588 25.4339 35.4588H20.2943C19.5265 35.4588 18.8284 35.5967 18.2054 35.8724L18.208 35.875ZM22.559 41.4186V42.1291C22.559 42.3226 22.4065 42.479 22.2178 42.479H20.2167C19.2292 42.479 18.3708 41.6996 18.3398 40.6869C18.3088 39.6397 19.1283 38.7833 20.1418 38.7833H22.2203C22.4091 38.7833 22.5616 38.9397 22.5616 39.1333V41.4186H22.559Z" fill="white"/>
<path d="M14.1898 38.6645C13.9416 38.0256 13.5952 37.4689 13.1479 36.9917C12.7007 36.5171 12.1629 36.1433 11.5347 35.8702C10.9039 35.5972 10.2085 35.4619 9.44581 35.4619H4.23904C4.10719 35.4619 4.00119 35.5706 4.00119 35.7058V50.3189C4.00119 50.4542 4.10719 50.5628 4.23904 50.5628H7.36723C7.49908 50.5628 7.60508 50.4542 7.60508 50.3189V47.0607C7.60508 46.944 7.53269 46.8433 7.4267 46.8062L5.32227 46.0904C5.25764 46.0692 5.27315 45.9711 5.34037 45.9711H9.482C10.2498 45.9711 10.9479 45.8332 11.5709 45.5575C12.194 45.2818 12.7265 44.9053 13.1712 44.4308C13.6159 43.9562 13.9571 43.3995 14.2002 42.7579C14.4432 42.119 14.5621 41.4376 14.5621 40.7112C14.5621 39.9848 14.438 39.3034 14.1898 38.6645ZM9.51561 42.6492H7.4086C7.27675 42.6492 7.17075 42.5405 7.17075 42.4053V39.1974C7.17075 39.0622 7.27675 38.9535 7.4086 38.9535H9.59058C10.604 38.9535 11.421 39.8125 11.3925 40.857C11.3641 41.8671 10.5032 42.6492 9.51561 42.6492Z" fill="white"/>
<path d="M33.7032 35.7244V42.1296C33.7032 42.2754 33.5868 42.392 33.4472 42.392H31.6608C30.7999 42.392 30.1019 41.6762 30.1019 40.7934V35.7244C30.1019 35.5786 29.9855 35.4619 29.8459 35.4619H26.9556C26.8134 35.4619 26.6996 35.5812 26.6996 35.7244V40.7112C26.6996 41.4376 26.8211 42.119 27.0616 42.7579C27.3046 43.3968 27.6458 43.9536 28.0905 44.4308C28.5326 44.9053 29.0677 45.2818 29.6908 45.5575C30.3138 45.8332 31.0093 45.9711 31.7797 45.9711H36.397C36.4642 45.9711 36.4798 46.0665 36.4151 46.0904L33.7988 46.9812C33.7135 47.0103 33.654 47.0925 33.654 47.1853V50.3004C33.654 50.4462 33.7704 50.5628 33.91 50.5628H36.9994C37.1416 50.5628 37.2553 50.4435 37.2553 50.3004V35.7244C37.2553 35.5786 37.139 35.4619 36.9994 35.4619H33.9617C33.8195 35.4619 33.7057 35.5812 33.7057 35.7244H33.7032Z" fill="white"/>
<path d="M52.633 35.8755C52.0099 36.1512 51.4774 36.5277 51.0327 37.0023C50.588 37.4768 50.2468 38.0336 50.0038 38.6751C49.7607 39.3141 49.6418 39.9954 49.6418 40.7218C49.6418 41.4482 49.7659 42.1296 50.0141 42.7685C50.2623 43.4074 50.6087 43.9642 51.056 44.4414C51.5032 44.9159 52.041 45.2897 52.6692 45.5628C53.3 45.8359 53.9954 45.9711 54.7581 45.9711H59.8977C60.0657 45.9711 60.2001 45.8332 60.2001 45.6609V35.7721C60.2001 35.5998 60.0657 35.4619 59.8977 35.4619H54.7193C53.9515 35.4619 53.2535 35.5998 52.6304 35.8755H52.633ZM56.8677 38.7838C57.0357 38.7838 57.1702 38.9217 57.1702 39.094V42.1693C57.1702 42.3417 57.0357 42.4795 56.8677 42.4795H54.8279C53.8403 42.4795 52.982 41.7001 52.951 40.69C52.92 39.6799 53.7395 38.7865 54.7529 38.7865H56.8703L56.8677 38.7838Z" fill="white"/>
<path d="M64.7061 35.4588H61.8002C61.6075 35.4588 61.4512 35.619 61.4512 35.8167V45.443C61.4512 45.6407 61.6075 45.8009 61.8002 45.8009H64.7061C64.8988 45.8009 65.0551 45.6407 65.0551 45.443V35.8167C65.0551 35.619 64.8988 35.4588 64.7061 35.4588Z" fill="white"/>
<path d="M69.592 30.8698H66.6861C66.4934 30.8698 66.3371 31.03 66.3371 31.2277V45.4431C66.3371 45.6407 66.4934 45.801 66.6861 45.801H69.592C69.7848 45.801 69.941 45.6407 69.941 45.4431V31.2277C69.941 31.03 69.7848 30.8698 69.592 30.8698Z" fill="white"/>
<path d="M45.1207 31.1614V34.3878C45.1207 34.4939 45.1853 34.5867 45.2835 34.6185L47.3337 35.3157C47.4112 35.3422 47.3931 35.4589 47.3104 35.4589H43.2438C42.4759 35.4589 41.7779 35.5967 41.1548 35.8725C40.5318 36.1482 39.9992 36.5246 39.5546 36.9992C39.1099 37.4737 38.7686 38.0305 38.5256 38.6721C38.2826 39.311 38.1637 39.9923 38.1637 40.7187C38.1637 41.4452 38.2878 42.1265 38.5359 42.7654C38.7841 43.4043 39.1306 43.9611 39.5778 44.4383C40.0251 44.9128 40.5628 45.2867 41.191 45.5597C41.8218 45.8328 42.5173 45.968 43.2799 45.968H48.4376C48.5953 45.968 48.722 45.8381 48.722 45.6764V31.1614C48.722 30.9997 48.5953 30.8698 48.4376 30.8698H45.4051C45.2474 30.8698 45.1207 30.9997 45.1207 31.1614ZM45.555 41.416V42.1848C45.555 42.3465 45.4283 42.4764 45.2706 42.4764H43.2127C42.2252 42.4764 41.3668 41.697 41.3358 40.6869C41.3048 39.6397 42.1243 38.7834 43.1378 38.7834H45.2706C45.4283 38.7834 45.555 38.9133 45.555 39.075V41.416Z" fill="white"/>
<path d="M78.0485 35.7297V42.1243C78.0485 42.2727 77.9322 42.392 77.7874 42.392H76.0061C75.1452 42.392 74.4472 41.6762 74.4472 40.7934V35.7297C74.4472 35.5812 74.3309 35.4619 74.1861 35.4619H71.3061C71.1613 35.4619 71.045 35.5812 71.045 35.7297V40.7112C71.045 41.4376 71.1665 42.119 71.4069 42.7579C71.6499 43.3968 71.9912 43.9536 72.4358 44.4308C72.8779 44.9053 73.4131 45.2818 74.0361 45.5575C74.6592 45.8332 75.3546 45.9711 76.125 45.9711H80.776C80.838 45.9711 80.851 46.0586 80.7941 46.0798L78.0046 47.0289V50.2924C78.0046 50.4409 78.1209 50.5602 78.2657 50.5602H81.3447C81.4895 50.5602 81.6059 50.4409 81.6059 50.2924V35.7297C81.6059 35.5812 81.4895 35.4619 81.3447 35.4619H78.3174C78.1726 35.4619 78.0563 35.5812 78.0563 35.7297H78.0485Z" fill="white"/>
</g>
</g>
<defs>
<clipPath id="clip0_7090_1045">
<rect y="25.0721" width="85.6" height="29.6" rx="4" fill="white"/>
</clipPath>
<clipPath id="clip1_7090_1045">
<rect width="77.6" height="29.6" fill="white" transform="translate(4 23.8721)"/>
</clipPath>
</defs>
</svg>
