<svg width="14" height="14" viewBox="0 0 14 14" fill="none" xmlns="http://www.w3.org/2000/svg">
<circle cx="7" cy="7" r="5" fill="white"/>
<path d="M13.0367 5.82833L12.13 4.775C11.9567 4.575 11.8167 4.20167 11.8167 3.935V2.80167C11.8167 2.095 11.2367 1.515 10.53 1.515H9.39667C9.13667 1.515 8.75667 1.375 8.55667 1.20167L7.50333 0.295C7.04333 -0.0983333 6.29 -0.0983333 5.82333 0.295L4.77667 1.20833C4.57667 1.375 4.19667 1.515 3.93667 1.515H2.78333C2.07667 1.515 1.49667 2.095 1.49667 2.80167V3.94167C1.49667 4.20167 1.35667 4.575 1.19 4.775L0.29 5.835C-0.0966666 6.295 -0.0966666 7.04167 0.29 7.50167L1.19 8.56167C1.35667 8.76167 1.49667 9.135 1.49667 9.395V10.535C1.49667 11.2417 2.07667 11.8217 2.78333 11.8217H3.93667C4.19667 11.8217 4.57667 11.9617 4.77667 12.135L5.83 13.0417C6.29 13.435 7.04333 13.435 7.51 13.0417L8.56333 12.135C8.76333 11.9617 9.13667 11.8217 9.40333 11.8217H10.5367C11.2433 11.8217 11.8233 11.2417 11.8233 10.535V9.40167C11.8233 9.14167 11.9633 8.76167 12.1367 8.56167L13.0433 7.50833C13.43 7.04833 13.43 6.28833 13.0367 5.82833ZM9.43667 5.40833L6.21667 8.62833C6.12333 8.72167 5.99667 8.775 5.86333 8.775C5.73 8.775 5.60333 8.72167 5.51 8.62833L3.89667 7.015C3.70333 6.82167 3.70333 6.50167 3.89667 6.30833C4.09 6.115 4.41 6.115 4.60333 6.30833L5.86333 7.56833L8.73 4.70167C8.92333 4.50833 9.24333 4.50833 9.43667 4.70167C9.63 4.895 9.63 5.215 9.43667 5.40833Z" fill="#377AFC"/>
</svg>
